<?xml version="1.0" standalone="no"?>
<!DOCTYPE svg PUBLIC "-//W3C//DTD SVG 20010904//EN"
 "http://www.w3.org/TR/2001/REC-SVG-20010904/DTD/svg10.dtd">
<svg version="1.0" xmlns="http://www.w3.org/2000/svg"
 width="400.000000pt" height="154.000000pt" viewBox="0 0 400.000000 154.000000"
 preserveAspectRatio="xMidYMid meet">

<g transform="translate(0.000000,154.000000) scale(0.100000,-0.100000)"
fill="#000000" stroke="none">
<path d="M1000 770 l0 -470 465 0 465 0 0 50 0 50 -80 0 c-75 0 -80 1 -80 21
0 52 59 109 128 124 l32 7 0 344 0 344 -465 0 -465 0 0 -470z m905 126 l0
-319 -40 -14 c-72 -25 -132 -104 -123 -164 3 -20 9 -22 83 -23 78 -1 80 -2 80
-26 l0 -25 -440 0 -440 0 -3 435 c-1 239 0 441 3 448 3 10 97 12 442 10 l438
-3 0 -319z"/>
<path d="M1350 910 l0 -29 80 -3 80 -3 -85 -119 c-49 -68 -85 -129 -85 -143 0
-23 0 -23 130 -23 l130 0 0 30 0 30 -90 0 -89 0 89 124 c50 68 90 133 90 145
0 20 -4 21 -125 21 l-125 0 0 -30z"/>
<path d="M1990 771 l0 -141 25 0 c24 0 24 1 27 103 l3 102 39 -103 c36 -94 42
-103 64 -100 21 3 30 17 61 95 20 50 40 95 44 99 4 4 7 -38 7 -94 0 -95 1
-102 20 -102 19 0 20 7 20 140 l0 140 -33 0 c-33 0 -35 -3 -62 -72 -15 -40
-34 -89 -42 -108 l-15 -35 -42 105 -42 105 -37 3 -37 3 0 -140z"/>
<path d="M2702 888 c2 -15 10 -23 23 -23 30 0 27 39 -3 43 -20 3 -23 0 -20
-20z"/>
<path d="M2580 864 c0 -17 -6 -28 -20 -31 -11 -3 -20 -14 -20 -24 0 -12 7 -19
20 -19 18 0 20 -7 20 -64 0 -74 14 -96 61 -96 22 0 29 5 29 19 0 10 -9 21 -20
24 -17 4 -20 14 -20 61 0 49 2 56 20 56 13 0 20 7 20 20 0 13 -7 20 -20 20
-16 0 -20 7 -20 30 0 25 -4 30 -25 30 -20 0 -25 -5 -25 -26z"/>
<path d="M2382 829 c-15 -6 -22 -15 -20 -26 4 -19 6 -19 49 -8 18 4 31 1 43
-10 23 -23 14 -32 -39 -37 -55 -7 -75 -22 -75 -59 0 -43 25 -62 74 -55 56 8
67 8 99 0 23 -5 27 -3 27 14 0 11 -7 22 -15 26 -11 4 -15 21 -15 63 0 64 -5
75 -37 92 -26 13 -59 13 -91 0z m85 -126 c7 -19 -46 -49 -66 -36 -24 15 -20
36 9 44 33 9 52 7 57 -8z"/>
<path d="M2845 831 c-39 -16 -60 -51 -60 -98 0 -38 5 -49 33 -74 22 -20 43
-29 67 -29 41 0 85 18 85 36 0 21 -20 27 -45 14 -32 -17 -73 -5 -87 25 -26 58
28 114 81 84 23 -13 31 -14 45 -4 15 12 15 15 -10 34 -27 21 -73 26 -109 12z"/>
<path d="M2700 730 l0 -100 25 0 25 0 0 100 0 100 -25 0 -25 0 0 -100z"/>
</g>
</svg>
